<svg xmlns="http://www.w3.org/2000/svg" viewBox="0 0 32 32"><title>BUSINESS</title><g id="_07.PODIUM" data-name="07.PODIUM"><path d="M18.57,16.39V15.08H13.39v2.84a.77.77,0,0,1-.77.77H6.67v2.79H25.29V17.16H19.34A.77.77,0,0,1,18.57,16.39Z" id="id_101" style="fill: rgb(255, 255, 255);"></path><path d="M16,2A14,14,0,1,0,30,16,14,14,0,0,0,16,2Zm5.21,10.81q.36-.26.73-.56t.58-.51a2.81,2.81,0,0,0,.47-.55.92.92,0,0,0,.14-.47A.53.53,0,0,0,23,10.3a.77.77,0,0,0-.51-.15,1.5,1.5,0,0,0-.52.1,2.4,2.4,0,0,0-.51.26h-.09v-.9a3.34,3.34,0,0,1,.57-.17,3.44,3.44,0,0,1,.75-.08,1.82,1.82,0,0,1,1.16.32,1.09,1.09,0,0,1,.4.9,1.47,1.47,0,0,1-.19.73,3,3,0,0,1-.58.71q-.25.23-.5.42l-.35.27h1.82v.77H21.21Zm-6.57-2.25h.85V8.43h-.85V7.77l.37,0a1,1,0,0,0,.3-.08.51.51,0,0,0,.21-.18.55.55,0,0,0,.08-.27h.9v3.35h.83v.71h-2.7ZM7.37,13.83h.11a2.6,2.6,0,0,0,.56.24,2,2,0,0,0,.59.1l.34,0A.72.72,0,0,0,9.28,14a.46.46,0,0,0,.22-.44.41.41,0,0,0-.08-.27.44.44,0,0,0-.21-.14,1.12,1.12,0,0,0-.32,0H8.31v-.72h.61a.88.88,0,0,0,.28-.06.41.41,0,0,0,.18-.14.44.44,0,0,0,.06-.25.3.3,0,0,0-.06-.2.44.44,0,0,0-.16-.12A.82.82,0,0,0,9,11.57l-.25,0a2,2,0,0,0-.55.09,2.56,2.56,0,0,0-.58.25h-.1V11a3.9,3.9,0,0,1,.61-.17,3.67,3.67,0,0,1,.78-.08,3,3,0,0,1,.67.07A1.68,1.68,0,0,1,10,11a.9.9,0,0,1,.33.32.89.89,0,0,1,.11.45,1,1,0,0,1-.21.6.93.93,0,0,1-.55.34v0a1.39,1.39,0,0,1,.29.08.92.92,0,0,1,.28.17.87.87,0,0,1,.21.27.89.89,0,0,1,.08.4,1.27,1.27,0,0,1-.11.53,1.1,1.1,0,0,1-.35.42,1.67,1.67,0,0,1-.54.26,2.67,2.67,0,0,1-.75.09A4.08,4.08,0,0,1,8,14.89a3.23,3.23,0,0,1-.58-.18ZM26.06,23H5.9a.77.77,0,0,1-.77-.77V17.92a.77.77,0,0,1,.77-.77h5.95V14.31a.77.77,0,0,1,.77-.77h6.72a.77.77,0,0,1,.77.77v1.31h5.95a.77.77,0,0,1,.77.77v5.87A.77.77,0,0,1,26.06,23Z" id="id_102" style="fill: rgb(255, 255, 255);"></path></g></svg>